<svg xmlns="http://www.w3.org/2000/svg" viewBox="0 0 94.5 94.5"><circle cx="50%" cy="50%" r="50%" fill="white" /><defs><style>.cls-1{fill:#010101;}.cls-2{fill:none;stroke:#010101;stroke-linecap:round;stroke-linejoin:round;}</style></defs><g id="Слой_2" data-name="Слой 2"><g id="Layer_1" data-name="Layer 1"><path class="cls-1" d="M66.83,81.64a39,39,0,0,0,5.27-3.56A39.46,39.46,0,1,0,23,78.2h0a39.07,39.07,0,0,0,5.12,3.43h0a39.09,39.09,0,0,0,16.35,4.94q1.48.12,3,.12t3-.12A39.12,39.12,0,0,0,66.83,81.64ZM47.22.5A46.75,46.75,0,1,1,.47,47.25h0A46.75,46.75,0,0,1,47.22.5h0Z"/><path class="cls-1" d="M40.83,45,33.22,62.18A14.7,14.7,0,0,1,47.5,66.5a14.71,14.71,0,0,1,14.33-4.32L55.17,45H40.83ZM71.92,77.86l.17.22a39,39,0,0,1-5.27,3.56v-8a8.29,8.29,0,0,0-8.31-6.43,7.88,7.88,0,0,0-8,6.41V86.55q-1.49.12-3,.12t-3-.12V73.66a7.87,7.87,0,0,0-8-6.41,8.29,8.29,0,0,0-8.31,6.43v8A38.9,38.9,0,0,1,23,78.18h0L23.5,68S44,21.72,44.83,20.18a3,3,0,0,1,5.39,0c.86,1.57,21.3,47.9,21.3,47.9ZM51.64,40.25l-4.18-11-4.17,11Z"/><polygon class="cls-1" points="47.5 29.25 51.68 40.25 47.5 40.25 43.33 40.25 47.5 29.25"/><circle class="cls-2" cx="47.25" cy="47.25" r="46.75"/><path class="cls-2" d="M28.15,81.64A39.29,39.29,0,0,1,23,78.18"/><path class="cls-2" d="M23,78.18a39.47,39.47,0,1,1,49.1-.12A39.29,39.29,0,0,1,50.5,86.57q-1.48.12-3,.12t-3-.12a39.09,39.09,0,0,1-16.35-4.94"/><path class="cls-2" d="M47.5,18.48a3.46,3.46,0,0,0-2.67,1.7c-.86,1.57-21.31,47.9-21.31,47.9L23,78.18h0"/><line class="cls-2" x1="43.33" y1="40.25" x2="47.5" y2="40.25"/><line class="cls-2" x1="47.5" y1="29.25" x2="43.33" y2="40.25"/><path class="cls-2" d="M41,44.75l-.13.29L33.22,62.18A14.7,14.7,0,0,1,47.5,66.5"/><line class="cls-2" x1="47.5" y1="45.1" x2="41" y2="45.1"/><path class="cls-2" d="M28.15,81.65h0v-8a8.29,8.29,0,0,1,8.31-6.43,7.87,7.87,0,0,1,8,6.41V86.56h0"/><path class="cls-2" d="M47.5,18.48a3.47,3.47,0,0,1,2.7,1.67c.86,1.57,21.3,47.9,21.3,47.9L72,77.86"/><line class="cls-2" x1="51.68" y1="40.25" x2="47.5" y2="40.25"/><line class="cls-2" x1="47.5" y1="29.25" x2="51.68" y2="40.25"/><path class="cls-2" d="M55,44.75l.12.3,6.71,17.13A14.7,14.7,0,0,0,47.55,66.5"/><line class="cls-2" x1="47.5" y1="45.1" x2="55" y2="45.1"/><path class="cls-2" d="M66.83,81.75V73.68a8.29,8.29,0,0,0-8.31-6.43,7.88,7.88,0,0,0-8.05,6.41V86.59h0"/><line class="cls-2" x1="33.76" y1="61.75" x2="60.76" y2="61.75"/><rect class="cls-1" x="39.26" y="61.75" width="16" height="4"/></g></g></svg>